<?xml version="1.0" encoding="utf-8"?>
<!-- Generator: Adobe Illustrator 25.2.0, SVG Export Plug-In . SVG Version: 6.00 Build 0)  -->
<svg version="1.1" id="Layer_1" xmlns="http://www.w3.org/2000/svg" xmlns:xlink="http://www.w3.org/1999/xlink" x="0px" y="0px"
	 viewBox="0 0 296 300" style="enable-background:new 0 0 296 300;" xml:space="preserve">
<style type="text/css">
	.st0{fill:#E5E7E8;}
	.st1{fill:#FFFFFF;stroke:#C2C7CA;stroke-miterlimit:10;}
	.st2{enable-background:new    ;}
	.st3{fill:#97A1A8;}
	.st4{fill:#FBFBFB;stroke:#C2C7CA;stroke-miterlimit:10;}
	.st5{fill:#97A1A8;enable-background:new    ;}
	.st6{fill:#FBFBFB;}
	.st7{fill:none;stroke:#475157;stroke-linecap:round;stroke-miterlimit:10;}
	.st8{fill:#FFB400;}
	.st9{fill:none;stroke:#475157;stroke-miterlimit:10;}
	.st10{fill:#C2C7CA;}
	.st11{fill:#FFFFFF;}
	.st12{fill:#FFFFFF;stroke:#FFFFFF;stroke-linecap:round;stroke-linejoin:round;stroke-miterlimit:10;}
	.st13{fill:none;stroke:#77B4D9;stroke-miterlimit:10;}
	.st14{fill:none;stroke:#B6D6E9;stroke-linecap:round;stroke-linejoin:round;stroke-miterlimit:10;}
	.st15{fill:#3CB3FF;}
	.st16{fill:#FFFFFF;stroke:#FFFFFF;stroke-miterlimit:10;}
	.st17{fill:#FFFFFF;enable-background:new    ;}
	.st18{fill:#C2C8CC;}
	.st19{fill:#006ADE;}
	.st20{fill:#4A5157;}
</style>
<desc>Created with Sketch.</desc>
<g>
	<path class="st0" d="M124.7,228.7V74.9c0-35.1,28.7-63.9,63.9-63.9h0c35.1,0,63.9,28.7,63.9,63.9v153.9c0,35.1-28.7,63.9-63.9,63.9
		h0C153.4,292.6,124.7,263.9,124.7,228.7z"/>
	<g>
		<g>
			<g transform="matrix(1, 0, 0, 1, -84, -55)">
				<path id="Rectangle-2_10_" class="st1" d="M218,122.5l68.7-30.7c0.1-0.1,0.3,0,0.4,0.1l21.1,47.3c0.1,0.1,0,0.3-0.1,0.4
					l-68.7,30.7c-0.1,0.1-0.3,0-0.4-0.1l-21.1-47.3C217.8,122.7,217.9,122.6,218,122.5z"/>
			</g>
			
				<rect id="Rectangle_Copy_13_11_" x="180.7" y="49.3" transform="matrix(0.9129 -0.4083 0.4083 0.9129 -6.309 82.6196)" class="st1" width="19.4" height="13.6"/>
			<path id="Path_22_11_" class="st1" d="M147.9,82.5l28.4-12.7"/>
			<path id="Path_26_11_" class="st1" d="M186.3,62.2l0.7-4.9l3.4-0.2l1.2-6.1l7,5.7L186.3,62.2z"/>
			<g>
				<path id="Path_25_11_" class="st1" d="M150.1,74.7l6.5-9.3l10.6-0.5"/>
				
					<ellipse id="Oval_Copy_11_" transform="matrix(0.9129 -0.4083 0.4083 0.9129 -13.049 69.6187)" class="st1" cx="156.6" cy="65.4" rx="1.9" ry="1.9"/>
				
					<ellipse id="Oval_Copy_2_11_" transform="matrix(0.9129 -0.4083 0.4083 0.9129 -11.9621 73.8513)" class="st1" cx="167" cy="64.9" rx="1.9" ry="1.9"/>
				
					<ellipse id="Oval-3_11_" transform="matrix(0.9129 -0.4083 0.4083 0.9129 -17.4037 67.7728)" class="st1" cx="150.1" cy="74.7" rx="1.9" ry="1.9"/>
			</g>
		</g>
		<g class="st2">
			
				<rect id="Rectangle-3_18_" x="157.3" y="91.4" transform="matrix(0.9129 -0.4083 0.4083 0.9129 -26.8878 73.8735)" class="st3" width="4.6" height="17"/>
			
				<rect id="Rectangle_Copy_11_18_" x="164.5" y="83.6" transform="matrix(0.9129 -0.4083 0.4083 0.9129 -23.966 76.3113)" class="st3" width="4.6" height="21.4"/>
			
				<rect id="Rectangle_Copy_12_25_" x="174.1" y="87.5" transform="matrix(0.9129 -0.4083 0.4083 0.9129 -23.1055 80.2546)" class="st3" width="4.6" height="13.6"/>
			
				<rect id="Rectangle_Copy_12_24_" x="181.3" y="80.2" transform="matrix(0.9129 -0.4083 0.4083 0.9129 -20.2148 82.7153)" class="st3" width="4.6" height="17.1"/>
		</g>
		
			<rect id="Rectangle-3_17_" x="188.1" y="70.7" transform="matrix(0.9129 -0.4083 0.4083 0.9129 -12.4171 87.0808)" class="st0" width="19.4" height="3.9"/>
		
			<rect id="Rectangle_Copy_11_17_" x="191.7" y="79.8" transform="matrix(0.9129 -0.4083 0.4083 0.9129 -16.2285 87.3513)" class="st0" width="9.7" height="3.9"/>
		
			<rect id="Rectangle_Copy_12_23_" x="194.6" y="85.6" transform="matrix(0.9129 -0.4083 0.4083 0.9129 -18.1247 90.244)" class="st0" width="15.6" height="3.9"/>
	</g>
	<g>
		<g>
			
				<rect x="88.8" y="91.2" transform="matrix(0.9756 -0.2195 0.2195 0.9756 -29.518 36.2902)" class="st4" width="119.5" height="119.5"/>
			<g class="st2">
				
					<rect x="86.7" y="99.9" transform="matrix(0.9757 -0.2192 0.2192 0.9757 -20.12 33.0098)" class="st5" width="104" height="14.5"/>
				
					<rect x="98.6" y="127.2" transform="matrix(0.9755 -0.2198 0.2198 0.9755 -33.9028 26.087)" class="st5" width="3.4" height="76.4"/>
				
					<rect x="88.1" y="111.9" transform="matrix(0.9757 -0.2192 0.2192 0.9757 -21.4772 33.4782)" class="st5" width="104" height="3.3"/>
			</g>
		</g>
		<g>
			<g>
				
					<rect x="97.2" y="124.7" transform="matrix(0.9778 -0.2095 0.2095 0.9778 -24.5859 25.5372)" class="st0" width="22.2" height="8.2"/>
				
					<rect x="118.8" y="117.3" transform="matrix(0.9778 -0.2095 0.2095 0.9778 -22.665 30.3219)" class="st0" width="26" height="9.7"/>
				<polygon class="st0" points="174.3,118 148.9,123.4 146.8,114 165.7,109.1 				"/>
				
					<rect x="170.7" y="108.9" transform="matrix(0.9778 -0.2095 0.2095 0.9778 -19.6519 40.5965)" class="st0" width="22.2" height="8.2"/>
			</g>
			<g>
				
					<rect x="99.5" y="135.8" transform="matrix(0.9778 -0.2095 0.2095 0.9778 -26.8606 26.2824)" class="st0" width="22.2" height="8.2"/>
				
					<rect x="121.6" y="130.3" transform="matrix(0.9778 -0.2095 0.2095 0.9778 -25.3346 31.1965)" class="st0" width="26" height="9.7"/>
				
					<rect x="150.3" y="124.2" transform="matrix(0.9778 -0.2095 0.2095 0.9778 -23.4044 37.0878)" class="st0" width="26" height="9.7"/>
				
					<rect x="173.1" y="120" transform="matrix(0.9778 -0.2095 0.2095 0.9778 -21.9265 41.3418)" class="st0" width="22.2" height="8.2"/>
			</g>
			<g>
				
					<rect x="104.3" y="158" transform="matrix(0.9778 -0.2095 0.2095 0.9778 -31.4098 27.7729)" class="st0" width="22.2" height="8.2"/>
				
					<rect x="127.2" y="156.4" transform="matrix(0.9778 -0.2095 0.2095 0.9778 -30.6737 32.9458)" class="st0" width="26" height="9.7"/>
				<polygon class="st0" points="179,152.7 157.2,162.5 155.2,153.1 180.6,147.6 				"/>
				
					<rect x="177.8" y="142.3" transform="matrix(0.9778 -0.2095 0.2095 0.9778 -26.4758 42.8323)" class="st0" width="22.2" height="8.2"/>
			</g>
			<g>
				
					<rect x="101.9" y="146.9" transform="matrix(0.9778 -0.2095 0.2095 0.9778 -29.1352 27.0277)" class="st0" width="22.2" height="8.2"/>
				
					<rect x="124.4" y="143.4" transform="matrix(0.9778 -0.2095 0.2095 0.9778 -28.0041 32.0712)" class="st0" width="26" height="9.7"/>
				
					<rect x="153.1" y="137.2" transform="matrix(0.9778 -0.2095 0.2095 0.9778 -26.0739 37.9625)" class="st0" width="26" height="9.7"/>
				
					<rect x="175.5" y="131.2" transform="matrix(0.9778 -0.2095 0.2095 0.9778 -24.2011 42.087)" class="st0" width="22.2" height="8.2"/>
			</g>
			<g>
				
					<rect x="106.7" y="169.1" transform="matrix(0.9778 -0.2095 0.2095 0.9778 -33.6844 28.5182)" class="st0" width="22.2" height="8.2"/>
				
					<rect x="131.2" y="163.9" transform="matrix(0.9778 -0.2095 0.2095 0.9778 -32.0397 33.538)" class="st0" width="22.2" height="8.2"/>
				<polygon class="st0" points="178.5,164.4 156.8,169.1 159.1,162.7 176.8,156.4 				"/>
				
					<rect x="180.2" y="153.4" transform="matrix(0.9778 -0.2095 0.2095 0.9778 -28.7504 43.5776)" class="st0" width="22.2" height="8.2"/>
			</g>
			<g>
				
					<rect x="109.1" y="180.2" transform="matrix(0.9778 -0.2095 0.2095 0.9778 -35.959 29.2635)" class="st0" width="22.2" height="8.2"/>
				
					<rect x="133.6" y="175" transform="matrix(0.9778 -0.2095 0.2095 0.9778 -34.3144 34.2832)" class="st0" width="22.2" height="8.2"/>
				
					<rect x="158.1" y="169.7" transform="matrix(0.9778 -0.2095 0.2095 0.9778 -32.6697 39.303)" class="st0" width="22.2" height="8.2"/>
				
					<rect x="182.6" y="164.5" transform="matrix(0.9778 -0.2095 0.2095 0.9778 -31.025 44.3228)" class="st0" width="22.2" height="8.2"/>
			</g>
			<g>
				
					<rect x="111.4" y="191.4" transform="matrix(0.9778 -0.2095 0.2095 0.9778 -38.2337 30.0087)" class="st0" width="22.2" height="8.2"/>
				
					<rect x="136" y="186.1" transform="matrix(0.9778 -0.2095 0.2095 0.9778 -36.589 35.0285)" class="st0" width="22.2" height="8.2"/>
				
					<rect x="160.5" y="180.8" transform="matrix(0.9778 -0.2095 0.2095 0.9778 -34.9443 40.0483)" class="st0" width="22.2" height="8.2"/>
				
					<rect x="185" y="175.6" transform="matrix(0.9778 -0.2095 0.2095 0.9778 -33.2996 45.0681)" class="st0" width="22.2" height="8.2"/>
			</g>
		</g>
		
			<rect x="87.3" y="118.1" transform="matrix(0.9755 -0.2198 0.2198 0.9755 -23.0731 31.1994)" class="st6" width="82.7" height="2.3"/>
		<rect x="87.3" y="161" transform="matrix(0.2195 0.9756 -0.9756 0.2195 258.6022 1.027)" class="st6" width="82.7" height="2.3"/>
	</g>
	<g>
		<path id="Line_Copy_29_17_" class="st7" d="M260.6,108.8h-3.3"/>
		<path id="Line_Copy_30_17_" class="st7" d="M267.6,108.8h-3.3"/>
		<path id="Line_Copy_31_17_" class="st7" d="M262.3,110.7v3.3"/>
		<path id="Line_Copy_32_17_" class="st7" d="M262.3,103.7v3.3"/>
		<g transform="matrix(1, 0, 0, 1, 0, 0)">
			<ellipse id="Oval_2_Copy_21-2_17_" class="st8" cx="251" cy="123.5" rx="2.8" ry="2.8"/>
		</g>
		<g transform="matrix(1, 0, 0, 1, 0, 0)">
			<ellipse id="Oval_2_Copy_27-2_17_" class="st9" cx="239" cy="102.5" rx="1.7" ry="1.7"/>
		</g>
	</g>
	<g>
		<path class="st10" d="M230.3,274.3H76.9c-1.2,0-2.2-1-2.2-2.2V167.1c0-1.2,1-2.2,2.2-2.2h153.4c1.2,0,2.2,1,2.2,2.2v105.1
			C232.5,273.3,231.5,274.3,230.3,274.3z"/>
		<path class="st5" d="M244.2,274.4H57.3c0,4.7,11.2,7.2,11.2,7.2c162.8,0,163.9,0,163.9,0S241.3,281,244.2,274.4z"/>
		<path class="st11" d="M223.4,265.8H83.2c-1.2,0-2.2-1-2.2-2.2v-90.8c0-1.2,1-2.2,2.2-2.2h140.2c1.2,0,2.2,1,2.2,2.2v90.8
			C225.6,264.9,224.6,265.8,223.4,265.8z"/>
	</g>
	<g>
		<g>
			<g>
				<g>
					<g>
						<path class="st10" d="M197.4,249.5l-95.8-30.2c-1.1-0.3-1.6-1.5-1.3-2.5l31.3-99.3c0.3-1.1,1.5-1.6,2.5-1.3l95.8,30.2
							c1.1,0.3,1.6,1.5,1.3,2.5l-31.3,99.3C199.6,249.2,198.5,249.8,197.4,249.5z"/>
					</g>
					<line class="st12" x1="113.2" y1="212.4" x2="140.5" y2="126.1"/>
					<polyline class="st12" points="219.4,150.4 190.6,236.3 113.3,211.9 140.5,126.1 219.4,150.4 					"/>
					<path class="st13" d="M129,161.6"/>
					<path class="st13" d="M155.8,225.6"/>
					<path class="st14" d="M214.4,165.5"/>
					<path class="st12" d="M135.9,140.7"/>
					<g class="st2">
						<path class="st15" d="M229.8,153.7l-99.7-31.5l5.5-17.3c0.3-1.1,1.5-1.6,2.5-1.3l95.9,30.3c1.1,0.3,1.6,1.5,1.3,2.5
							L229.8,153.7z"/>
					</g>
					<path class="st16" d="M189.7,129l-45.2-14.3c-0.5-0.2-0.7-0.7-0.6-1.1l0.4-1.2c0.2-0.5,0.7-0.7,1.1-0.6l45.2,14.3
						c0.5,0.2,0.7,0.7,0.6,1.1l-0.4,1.2C190.7,128.8,190.2,129.1,189.7,129z"/>
					<path class="st16" d="M168.8,128.3l-26-8.2c-0.5-0.2-0.7-0.7-0.6-1.1l0.4-1.2c0.2-0.5,0.7-0.7,1.1-0.6l26,8.2
						c0.5,0.2,0.7,0.7,0.6,1.1l-0.4,1.2C169.8,128.2,169.3,128.5,168.8,128.3z"/>
				</g>
			</g>
		</g>
	</g>
	<path class="st17" d="M66.3,150.3c-1,0.4-2,0.8-3.1,0.6c-1.2-0.1-2.1-1.2-2.6-2.3c-0.5-1.1-0.8-2.3-1.6-3.3c-1-1.3-2.6-1.9-4.2-1.9
		c-2.3-0.1-5,1.5-7.1,0.8c-1.2-0.4-1.9-1.5-2.5-2.6c-0.6-1.1-1.1-2.3-2.1-3c-2.8-2.2-8.4-0.3-9.9,2.7c-0.6,1.2-0.7,2.9-1.9,3.6
		c-0.5,0.3-1.1,0.4-1.6,0.5c-1.9,0.4-3.7,1.7-4.6,3.5s-1,3.9-0.2,5.7c0.7,1.6,2.1,2.8,3.5,3.8c1.3,1,2.8,1.9,4.5,1.9
		c1.4,0,2.8-0.6,4.2-1.1c6.1-2.2,12.7-2.2,19.2-2.1c1.9,0,3.8,0.1,5.6,0.6c2.5,0.7,4.6,2.2,7,3.3c0.8,0.4,1.7,0.7,2.6,0.5
		c0.6-0.1,1.2-0.5,1.7-0.9c2.1-2,3-5.5,1.5-8.1c-0.8-1.5-2.3-2.5-3.9-2.8C69,149.1,67.6,149.7,66.3,150.3z"/>
	<path class="st17" d="M188.2,29.4c-1,0.4-2,0.8-3.1,0.6c-1.2-0.1-2.1-1.2-2.6-2.3c-0.5-1.1-0.8-2.3-1.6-3.3c-1-1.3-2.6-1.9-4.2-1.9
		c-2.3-0.1-5,1.5-7.1,0.8c-1.2-0.4-1.9-1.5-2.5-2.6c-0.6-1.1-1.1-2.3-2.1-3c-2.8-2.2-8.4-0.3-9.9,2.7c-0.6,1.2-0.7,2.9-1.9,3.6
		c-0.5,0.3-1.1,0.4-1.6,0.5c-1.9,0.4-3.7,1.7-4.6,3.5s-1,3.9-0.2,5.7c0.7,1.6,2.1,2.8,3.5,3.8c1.3,1,2.8,1.9,4.5,1.9
		c1.4,0,2.8-0.6,4.2-1.1c6.1-2.2,12.7-2.2,19.2-2.1c1.9,0,3.8,0.1,5.6,0.6c2.5,0.7,4.6,2.2,7,3.3c0.8,0.4,1.7,0.7,2.6,0.5
		c0.6-0.1,1.2-0.5,1.7-0.9c2.1-2,3-5.5,1.5-8.1c-0.8-1.5-2.3-2.5-3.9-2.8C190.9,28.3,189.5,28.9,188.2,29.4z"/>
	<path class="st18" d="M121.1,79.1c-1,0.4-2,0.8-3.1,0.6c-1.2-0.1-2.1-1.2-2.6-2.3c-0.5-1.1-0.8-2.4-1.6-3.3c-1-1.3-2.6-1.9-4.3-2
		c-2.3-0.1-5,1.5-7.2,0.8c-1.2-0.4-2-1.5-2.6-2.6c-0.6-1.1-1.1-2.3-2.1-3.1c-2.8-2.2-8.5-0.3-10,2.8c-0.6,1.2-0.7,2.9-1.9,3.6
		c-0.5,0.3-1.1,0.4-1.6,0.5c-2,0.4-3.7,1.7-4.6,3.5c-0.9,1.8-1,4-0.2,5.8c0.7,1.6,2.1,2.8,3.5,3.8c1.3,1,2.9,1.9,4.5,1.9
		c1.5,0,2.8-0.6,4.2-1.1c6.1-2.3,12.8-2.2,19.4-2.1c1.9,0,3.8,0.1,5.7,0.6c2.5,0.7,4.7,2.2,7,3.3c0.8,0.4,1.7,0.7,2.6,0.5
		c0.6-0.1,1.2-0.5,1.7-1c2.2-2,3-5.5,1.5-8.2c-0.8-1.5-2.3-2.5-4-2.9C123.9,78,122.5,78.6,121.1,79.1z"/>
	<g>
		<path class="st8" d="M113.4,12.8c0,0-0.6,7.1,9.6,11.2c0,0-9.2,3.2-8.8,11.7c0,0-3.6-11.2-10.6-11.4
			C103.6,24.2,112.4,22.4,113.4,12.8z"/>
		<path class="st19" d="M108.5,35.7c0,0-0.3,3.6,4.8,5.6c0,0-4.6,1.6-4.4,5.8c0,0-1.8-5.6-5.3-5.7C103.6,41.4,108,40.5,108.5,35.7z"
			/>
	</g>
	<g>
		<path id="Line_Copy_29_16_" class="st7" d="M37.9,267.6h3.3"/>
		<path id="Line_Copy_30_16_" class="st7" d="M30.9,267.6h3.3"/>
		<path id="Line_Copy_31_16_" class="st7" d="M36.1,269.5v3.3"/>
		<path id="Line_Copy_32_16_" class="st7" d="M36.1,262.5v3.3"/>
		<g transform="matrix(1, 0, 0, 1, 0, 0)">
			<ellipse id="Oval_2_Copy_21-2_16_" class="st8" cx="47.4" cy="282.3" rx="2.8" ry="2.8"/>
		</g>
		<g transform="matrix(1, 0, 0, 1, 0, 0)">
			<ellipse id="Oval_2_Copy_27-2_16_" class="st9" cx="59.5" cy="261.3" rx="1.7" ry="1.7"/>
		</g>
	</g>
	<g>
		<g>
			<path class="st20" d="M116.5,255.8c-2.1,0-7.4,0.2-9.3-0.6c-3.6-1.4-5.3-4.9-4.4-8.7c0.4-1.8,1.2-3.6,2.1-5.2
				c12.5-21.8,25.1-43.6,37.8-65.4c1-1.8,2.4-3.5,4-4.9c2.9-2.5,6.5-2.4,9.4,0"/>
			<path class="st8" d="M155.8,255.9c-12.7,0-25.3,0-38-0.1c-2.1,0-4.3-0.4-6.2-1.1c-3.6-1.4-5.3-4.9-4.4-8.7
				c0.4-1.8,1.2-3.6,2.1-5.2c12.5-21.8,25.1-43.6,37.8-65.4c1-1.8,2.4-3.5,4-4.9c2.9-2.5,6.5-2.4,9.4,0c1.5,1.3,2.9,3,3.9,4.7
				c12.7,21.9,25.3,43.8,38,65.7c0.4,0.6,0.7,1.2,1,1.9c3.2,7-0.4,12.8-8.1,12.9c-5.1,0.1-10.2,0-15.3,0
				C172,255.9,163.9,255.9,155.8,255.9z M159.3,225.3c0.1-0.5,0.3-0.8,0.3-1.1c1.1-7.4,2.2-14.8,3.3-22.2c0.2-1.5,0.5-3.1,0.2-4.6
				c-0.8-4.4-4.5-6.8-8.9-6c-3.9,0.7-6.4,4.9-5.7,9.2c0.9,5.2,1.8,10.4,2.6,15.6c0.5,3,0.8,6,1.3,9
				C154.8,225.3,157,225.3,159.3,225.3z M155.9,244.4c4.1,0,7.4-3.4,7.4-7.4c0-4-3.4-7.4-7.4-7.4c-4.1,0-7.5,3.5-7.5,7.6
				C148.4,241.1,151.8,244.4,155.9,244.4z"/>
		</g>
		<g>
			<path class="st11" d="M159.2,225.3c0.1-0.5,0.3-0.8,0.3-1.2c1.2-8,2.4-16.1,3.6-24.1c0.2-1.7,0.5-3.4,0.2-5
				c-0.8-4.7-4.9-7.4-9.7-6.5c-4.2,0.8-7,5.3-6.2,10c1,5.7,2,11.3,2.9,17c0.5,3.2,0.9,6.5,1.4,9.8
				C154.3,225.3,156.7,225.3,159.2,225.3z"/>
			<path class="st11" d="M155.5,246.1c4.4,0,8.1-3.7,8-8.1c0-4.4-3.7-8.1-8.1-8.1c-4.4,0-8.2,3.8-8.1,8.2
				C147.4,242.5,151.1,246.1,155.5,246.1z"/>
		</g>
	</g>
</g>
</svg>
