<?xml version="1.0" encoding="utf-8"?>
<!-- Generator: Adobe Illustrator 25.2.0, SVG Export Plug-In . SVG Version: 6.00 Build 0)  -->
<svg version="1.1" id="Layer_1" xmlns="http://www.w3.org/2000/svg" xmlns:xlink="http://www.w3.org/1999/xlink" x="0px" y="0px"
	 viewBox="0 0 296 300" style="enable-background:new 0 0 296 300;" xml:space="preserve">
<style type="text/css">
	.st0{fill:#E5E7E8;}
	.st1{fill:#FFFFFF;stroke:#C2C7CA;stroke-miterlimit:10;}
	.st2{enable-background:new    ;}
	.st3{fill:#97A1A8;}
	.st4{fill:#FBFBFB;stroke:#C2C7CA;stroke-miterlimit:10;}
	.st5{fill:#97A1A8;enable-background:new    ;}
	.st6{fill:#FBFBFB;}
	.st7{fill:#C2C7CA;}
	.st8{fill:#FFFFFF;}
	.st9{fill:none;stroke:#020202;stroke-linecap:round;stroke-linejoin:round;stroke-miterlimit:10;stroke-dasharray:5,5,5;}
	.st10{fill:none;stroke:#020202;stroke-linecap:round;stroke-linejoin:round;stroke-miterlimit:10;}
	.st11{fill:none;stroke:#020202;stroke-linecap:square;stroke-miterlimit:10;}
	.st12{fill:none;}
	.st13{clip-path:url(#SVGID_2_);}
	.st14{fill:#096ED0;}
	.st15{fill:#3CB3FF;}
	.st16{fill:none;stroke:#475157;stroke-miterlimit:10;enable-background:new    ;}
	.st17{fill:#475157;}
	.st18{fill:#FFB400;}
	.st19{fill:none;stroke:#FFFFFF;stroke-linecap:round;stroke-linejoin:round;stroke-miterlimit:10;enable-background:new    ;}
	.st20{fill:#007DB0;}
	.st21{fill:#FFFFFF;enable-background:new    ;}
	.st22{fill:#C2C8CC;}
	.st23{fill:#006ADE;}
</style>
<desc>Created with Sketch.</desc>
<g>
	<path class="st0" d="M82.2,221.4V76.5c0-35.4,28.9-64.3,64.3-64.3h0c35.4,0,64.3,28.9,64.3,64.3v144.9c0,35.4-28.9,64.3-64.3,64.3
		h0C111.1,285.7,82.2,256.7,82.2,221.4z"/>
	<path class="st0" d="M216.3,277.9h-73.1c-33.6,0-61.1-27.5-61.1-61.1v0c0-33.6,27.5-61.1,61.1-61.1h73.1
		c33.6,0,61.1,27.5,61.1,61.1v0C277.4,250.4,249.9,277.9,216.3,277.9z"/>
	<g>
		<g>
			<g transform="matrix(1, 0, 0, 1, -84, -55)">
				<path id="Rectangle-2_7_" class="st1" d="M174.4,161.4L243,131c0.1-0.1,0.3,0,0.4,0.1l21.1,46.8c0.1,0.1,0,0.3-0.1,0.4
					l-68.6,30.5c-0.1,0.1-0.3,0-0.4-0.1l-21.1-46.8C174.2,161.7,174.2,161.5,174.4,161.4z"/>
			</g>
			<polygon id="Rectangle_Copy_13_10_" class="st1" points="135,92.9 152.8,85.1 158.3,97.3 140.6,105.2 			"/>
			<path id="Path_22_10_" class="st1" d="M104.3,121.3l28.3-12.6"/>
			<path id="Path_26_10_" class="st1" d="M142.6,101.2l0.7-4.8l3.4-0.2l1.2-6.1l7,5.6L142.6,101.2z"/>
			<g>
				<path id="Path_25_10_" class="st1" d="M106.4,113.5l6.5-9.2l10.5-0.5"/>
				
					<ellipse id="Oval_Copy_10_" transform="matrix(0.994 -0.1091 0.1091 0.994 -10.7141 12.9443)" class="st1" cx="112.9" cy="104.3" rx="1.9" ry="1.9"/>
				
					<ellipse id="Oval_Copy_2_10_" transform="matrix(0.994 -0.1091 0.1091 0.994 -10.6052 14.0814)" class="st1" cx="123.3" cy="103.9" rx="1.9" ry="1.9"/>
				
					<ellipse id="Oval-3_10_" transform="matrix(0.994 -0.1091 0.1091 0.994 -11.7561 12.2908)" class="st1" cx="106.4" cy="113.5" rx="1.9" ry="1.9"/>
			</g>
		</g>
		<g class="st2">
			<polygon id="Rectangle-3_16_" class="st3" points="117.3,147.2 110.4,131.8 114.6,130 121.5,145.3 			"/>
			<polygon id="Rectangle_Copy_11_16_" class="st3" points="125.3,143.6 116.6,124.3 120.9,122.4 129.6,141.7 			"/>
			<polygon id="Rectangle_Copy_12_22_" class="st3" points="133.4,140 127.9,127.8 132.1,125.9 137.6,138.2 			"/>
			<polygon id="Rectangle_Copy_12_21_" class="st3" points="141.3,136.1 134.3,120.7 138.6,118.8 145.5,134.3 			"/>
		</g>
		<polygon id="Rectangle-3_15_" class="st0" points="144.4,113.7 162.1,105.8 163.7,109.4 146,117.2 		"/>
		<polygon id="Rectangle_Copy_11_15_" class="st0" points="147.6,120.7 156.4,116.8 158,120.3 149.1,124.2 		"/>
		<polygon id="Rectangle_Copy_12_20_" class="st0" points="150.7,127.7 164.9,121.4 166.5,125 152.3,131.2 		"/>
	</g>
	<g>
		<g>
			<polygon class="st4" points="176.2,233.9 59.8,259.9 33.6,144.4 150,118.4 			"/>
			<g class="st2">
				<polygon class="st5" points="147.3,141.4 46,164 42.8,150.1 144.1,127.5 				"/>
				<polygon class="st5" points="63.4,240.7 46.6,166.9 49.9,166.1 66.7,240 				"/>
				<polygon class="st5" points="147.5,142.3 46.2,164.9 45.5,161.7 146.8,139.2 				"/>
			</g>
		</g>
		<g>
			<g>
				<polygon class="st0" points="76.3,168.9 54.7,173.5 53,165.5 74.6,160.9 				"/>
				<polygon class="st0" points="101.8,162.6 76.5,168 74.4,158.6 99.8,153.2 				"/>
				<polygon class="st0" points="130.6,156.5 105.2,161.8 103.2,152.5 122,147.6 				"/>
				<polygon class="st0" points="149.7,153.3 128.1,157.9 126.4,149.9 148,145.3 				"/>
			</g>
			<g>
				<polygon class="st0" points="78.7,179.9 57.1,184.5 55.3,176.5 77,171.9 				"/>
				<polygon class="st0" points="104.6,175.5 79.3,180.9 77.2,171.5 102.6,166.1 				"/>
				<polygon class="st0" points="133.4,169.4 108,174.8 106,165.4 131.3,160 				"/>
				<polygon class="st0" points="152.1,164.3 130.5,168.9 128.8,160.9 150.4,156.3 				"/>
			</g>
			<g>
				<polygon class="st0" points="83.4,201.9 61.8,206.5 60.1,198.5 81.7,193.9 				"/>
				<polygon class="st0" points="110.2,201.3 84.8,206.7 82.8,197.4 108.2,192 				"/>
				<polygon class="st0" points="135.2,190.9 113.6,200.6 111.5,191.2 136.9,185.8 				"/>
				<polygon class="st0" points="156.9,186.3 135.2,190.9 133.5,182.9 155.2,178.3 				"/>
			</g>
			<g>
				<polygon class="st0" points="81.1,190.9 59.4,195.5 57.7,187.5 79.3,182.9 				"/>
				<polygon class="st0" points="107.4,188.4 82,193.8 80,184.4 105.4,179 				"/>
				<polygon class="st0" points="136.2,182.3 110.8,187.7 108.7,178.3 134.1,172.9 				"/>
				<polygon class="st0" points="154.5,175.3 132.9,179.9 131.1,171.9 152.8,167.3 				"/>
			</g>
			<g>
				<polygon class="st0" points="85.8,212.9 64.2,217.5 62.5,209.5 84.1,204.9 				"/>
				<polygon class="st0" points="110.3,207.7 88.7,212.3 86.9,204.3 108.6,199.7 				"/>
				<polygon class="st0" points="134.8,202.5 113.1,207.1 115.5,200.8 133.1,194.5 				"/>
				<polygon class="st0" points="159.2,197.3 137.6,201.9 135.9,193.9 157.5,189.3 				"/>
			</g>
			<g>
				<polygon class="st0" points="88.2,223.9 66.6,228.5 64.8,220.5 86.5,215.9 				"/>
				<polygon class="st0" points="112.7,218.7 91,223.3 89.3,215.3 111,210.7 				"/>
				<polygon class="st0" points="137.1,213.5 115.5,218.1 113.8,210.1 135.4,205.5 				"/>
				<polygon class="st0" points="161.6,208.3 140,212.9 138.3,204.9 159.9,200.3 				"/>
			</g>
			<g>
				<polygon class="st0" points="90.6,234.9 68.9,239.5 67.2,231.5 88.9,226.9 				"/>
				<polygon class="st0" points="115.1,229.7 93.4,234.3 91.7,226.3 113.3,221.7 				"/>
				<polygon class="st0" points="139.5,224.5 117.9,229.1 116.2,221.1 137.8,216.5 				"/>
				<polygon class="st0" points="164,219.3 142.4,223.9 140.6,215.9 162.3,211.3 				"/>
			</g>
		</g>
		<polygon class="st6" points="125,147.6 44.5,165.6 45,167.9 125.6,149.9 		"/>
		<polygon class="st6" points="95.2,239.9 77.1,160 74.8,160.5 92.9,240.4 		"/>
	</g>
	<g>
		<path class="st7" d="M210,271.1H73.8c-1.2,0-2.2-1-2.2-2.2v-92.4c0-1.2,1-2.2,2.2-2.2H210c1.2,0,2.2,1,2.2,2.2v92.4
			C212.2,270.1,211.2,271.1,210,271.1z"/>
		<path class="st5" d="M222.7,271.2H56.1c0,4.2,9.9,6.4,9.9,6.4c145.1,0,146.1,0,146.1,0S220.1,277,222.7,271.2z"/>
		<path class="st8" d="M203.9,263.6H79.4c-1.2,0-2.2-1-2.2-2.2v-79.8c0-1.2,1-2.2,2.2-2.2h124.5c1.2,0,2.2,1,2.2,2.2v79.8
			C206.1,262.6,205.1,263.6,203.9,263.6z"/>
	</g>
	<g>
		<path id="Path_7_" class="st9" d="M37.9,186.5c-11.6,4.7-19.8,19.3-21,32.1c-3.2,36,20.2,59,53.9,58.3"/>
		<g>
			<line class="st10" x1="29.4" y1="186.8" x2="38.8" y2="186.1"/>
			<line class="st10" x1="38.6" y1="186.4" x2="34.5" y2="193.2"/>
			<line class="st11" x1="30.4" y1="186.7" x2="30.4" y2="186.7"/>
		</g>
	</g>
	<g>
		<g transform="matrix(1, 0, 0, 1, -213.5, -38.85)">
			<path id="Combined_Shape-2_3_" class="st12" d="M359.1,314.6c-2.9-10.1-3.4-30.2,12.4-41.8c10.6-7.7,15.1-13.7,15.1-18.7
				s-4.5-11-15.1-18.7c-15.9-11.5-15.3-31.7-12.4-41.8h-2.6c-2,0-3.6-1.3-3.6-2.9v-0.6h72.8v0.6c0,1.6-1.6,2.9-3.6,2.9h-2.6
				c2.9,10.1,3.4,30.2-12.4,41.8c-10.6,7.7-15.1,13.7-15.1,18.7c0,5,4.5,11,15.1,18.7c15.9,11.5,15.3,31.7,12.4,41.8H359.1z
				 M431.9,193.6c-0.9,0-1.6-0.7-1.6-1.6l0,0v-1.9H442v1.9c0,0.9-0.7,1.6-1.6,1.6l0,0H431.9z M338,193.6c-0.9,0-1.6-0.7-1.6-1.6
				v-1.9h11.7v1.9c0,0.9-0.7,1.6-1.6,1.6H338z M335.3,190.1c-0.2,0-0.3,0-0.5-0.1l-5.7-3.8c-0.4-0.3-0.5-0.8-0.2-1.1
				c0.1-0.1,0.1-0.2,0.2-0.2l5.7-3.8c0.1-0.1,0.3-0.1,0.5-0.1h107.8c0.2,0,0.3,0,0.5,0.1l5.7,3.8c0.4,0.3,0.5,0.8,0.2,1.1
				c-0.1,0.1-0.1,0.2-0.2,0.2l-5.7,3.8c-0.1,0.1-0.3,0.1-0.5,0.1H335.3z"/>
		</g>
		<g id="Group_34_3_" transform="translate(50.481 22.183)">
			<path id="Mask-2_3_" class="st8" d="M127.8,193.1c0,5,4.5,11,15.1,18.7c15.9,11.5,15.3,31.7,12.4,41.8H95.2
				c-2.9-10.1-3.4-30.2,12.4-41.8c10.6-7.7,15.1-13.7,15.1-18.7s-4.5-11-15.1-18.7c-15.9-11.5-15.3-31.7-12.4-41.8h60.2
				c2.9,10.1,3.4,30.2-12.4,41.8C132.3,182,127.8,188,127.8,193.1z"/>
			<g>
				<defs>
					<path id="SVGID_1_" d="M127.8,193.1c0,5,4.5,11,15.1,18.7c15.9,11.5,15.3,31.7,12.4,41.8H95.2c-2.9-10.1-3.4-30.2,12.4-41.8
						c10.6-7.7,15.1-13.7,15.1-18.7s-4.5-11-15.1-18.7c-15.9-11.5-15.3-31.7-12.4-41.8h60.2c2.9,10.1,3.4,30.2-12.4,41.8
						C132.3,182,127.8,188,127.8,193.1z"/>
				</defs>
				<clipPath id="SVGID_2_">
					<use xlink:href="#SVGID_1_"  style="overflow:visible;"/>
				</clipPath>
				<g id="Group_34-2_3_" class="st13">
					<path id="Combined_Shape-3_3_" class="st14" d="M112.9,178.3c18.4-5.6,28.8-1.4,28.8-1.4l-4,3.5l-3.2,1.4l-7.2,1.4L112.9,178.3
						z"/>
					<path id="Combined_Shape-4_2_" class="st15" d="M125.3,219.7c1.8-3.6-2.3-26.1-2.3-26.1l0,0c0-0.1,0-0.2,0-0.3
						c0-4.7-3.9-10.2-13-17.1c2.7,1.4,16.6,8.3,25.9,4.4c-5.3,4.9-7.7,9.1-7.7,12.7c0,0-2.8,24.9-1.3,24.9c-0.5,1.4-1.2,2.2-1.5,2.2
						C125.1,220.4,125.1,220.2,125.3,219.7z"/>
					<path id="Path_15_3_" class="st15" d="M126.1,218.2c0,0-6.3,9.3-33.8,13.7l-1.6,6.5v7.2l1.6,8.6h66.1l0.8-4.3l0.8-11.5
						c-0.4-2.2-0.9-4.3-1.6-6.5c-11.8-8.6-26.3-12-31.5-13.7C126,218,126.1,218.2,126.1,218.2z"/>
				</g>
			</g>
		</g>
		<path id="Combined_Shape_Copy_2_3_" class="st16" d="M178.3,215.3c0,5,4.5,11,15.1,18.7c15.9,11.5,15.3,31.7,12.4,41.8h-60.2
			c-2.9-10.1-3.4-30.2,12.4-41.8c10.6-7.7,15.1-13.7,15.1-18.7s-4.5-11-15.1-18.7c-15.9-11.5-15.3-31.7-12.4-41.8h60.2
			c2.9,10.1,3.4,30.2-12.4,41.8C182.8,204.2,178.3,210.2,178.3,215.3z"/>
		<path id="Rectangle_13_Copy_2_3_" class="st17" d="M121.9,151.3c-0.2,0-0.3,0-0.5-0.1l-5.7-3.8c-0.4-0.3-0.5-0.8-0.2-1.1
			c0.1-0.1,0.1-0.2,0.2-0.2l5.7-3.8c0.1-0.1,0.3-0.1,0.5-0.1h107.8c0.2,0,0.3,0,0.5,0.1l5.7,3.8c0.4,0.3,0.5,0.8,0.2,1.1
			c-0.1,0.1-0.1,0.2-0.2,0.2l-5.7,3.8c-0.1,0.1-0.3,0.1-0.5,0.1L121.9,151.3z"/>
		<path id="Rectangle_14_Copy_6_3_" class="st18" d="M143,154.8c-2,0-3.6-1.3-3.6-2.9v-0.6h72.8v0.6c0,1.6-1.6,2.9-3.6,2.9H143z"/>
		<path id="Rectangle_14_Copy_7_3_" class="st17" d="M122.9,151.3h11.7l0,0v1.9c0,0.9-0.7,1.6-1.6,1.6h-8.5c-0.9,0-1.6-0.7-1.6-1.6
			l0,0V151.3L122.9,151.3z"/>
		<path id="Rectangle_14_Copy_8_3_" class="st17" d="M216.8,151.3h11.7l0,0v1.9c0,0.9-0.7,1.6-1.6,1.6h-8.5c-0.9,0-1.6-0.7-1.6-1.6
			l0,0V151.3L216.8,151.3z"/>
		<path id="Rectangle_13_Copy_3_3_" class="st17" d="M121.9,279.2c-0.2,0-0.3,0-0.5,0.1l-5.7,3.8c-0.4,0.3-0.5,0.8-0.2,1.1
			c0.1,0.1,0.1,0.2,0.2,0.2l5.7,3.8c0.1,0.1,0.3,0.1,0.5,0.1h107.8c0.2,0,0.3,0,0.5-0.1l5.7-3.8c0.4-0.3,0.5-0.8,0.2-1.1
			c-0.1-0.1-0.1-0.2-0.2-0.2l-5.7-3.8c-0.1-0.1-0.3-0.1-0.5-0.1L121.9,279.2z"/>
		<path id="Rectangle_14_Copy_9_3_" class="st18" d="M143,275.8c-2,0-3.6,1.3-3.6,2.9v0.6h72.8v-0.6c0-1.6-1.6-2.9-3.6-2.9H143z"/>
		<path id="Rectangle_14_Copy_12_3_" class="st17" d="M124.6,275.8h8.5c0.9,0,1.6,0.7,1.6,1.6v1.9l0,0h-11.7l0,0v-1.9
			C122.9,276.5,123.7,275.8,124.6,275.8L124.6,275.8z"/>
		<path id="Rectangle_14_Copy_13_3_" class="st17" d="M218.5,275.8h8.5c0.9,0,1.6,0.7,1.6,1.6v1.9l0,0h-11.7l0,0v-1.9
			C216.8,276.5,217.6,275.8,218.5,275.8L218.5,275.8z"/>
		<g id="Group_38_Copy_3_" transform="matrix(0.998, -0.07, 0.07, 0.998, 58.56, 45.352)">
			<path id="Path_8_" class="st16" d="M89.3,152.9c-0.5-0.7-1-1.3-1.5-2"/>
			<path id="Path-2_3_" class="st16" d="M86.6,149c-3.9-6.5-5.2-13.8-5.2-20.3"/>
		</g>
		<g id="Group_37_Copy_3_" transform="matrix(0.998, 0.07, -0.07, 0.998, 60.761, 161.332)">
			<path id="Path-3_3_" class="st16" d="M95.4,101.4c-1.1-2.5-1.7-8.3-0.6-13.2"/>
			<path id="Path-4_3_" class="st16" d="M98.2,79.3L98.2,79.3c0.6-1.1,1.2-2.3,1.9-3.3c0.2-0.4,0.5-0.7,0.8-1.1
				c0.6-0.8,1.2-1.7,1.9-2.4L98.2,79.3z M105.1,70.1L105.1,70.1c1-0.9,2.1-1.8,3.2-2.6L105.1,70.1z"/>
		</g>
		<rect id="Rectangle_22_Copy_2_3_" x="126.5" y="154.8" class="st17" width="4.7" height="121"/>
		<rect id="Rectangle_22_Copy_3_3_" x="220.4" y="154.8" class="st17" width="4.7" height="121"/>
		<path id="Path_4_Copy_2_3_" class="st19" d="M115.6,146.6h121.5"/>
		<path id="Path_4_Copy_2_1_" class="st19" d="M115.6,283.9h121.5"/>
		<rect x="176.2" y="206.2" class="st20" width="1.7" height="1.6"/>
		<rect x="176.2" y="216.1" class="st20" width="1.7" height="1.6"/>
		<rect x="176.2" y="225.9" class="st20" width="1.7" height="1.6"/>
		<g>
			<rect x="186.1" y="157" class="st14" width="1.7" height="1.6"/>
			<rect x="191" y="157" class="st14" width="1.7" height="1.6"/>
			<rect x="196" y="157" class="st14" width="1.7" height="1.6"/>
			<rect x="201" y="157" class="st14" width="1.7" height="1.6"/>
			<rect x="205.9" y="157" class="st14" width="1.7" height="1.6"/>
			<rect x="182.8" y="201.3" class="st14" width="1.7" height="1.6"/>
			<rect x="186.1" y="196.4" class="st14" width="1.7" height="1.6"/>
			<rect x="181.1" y="206.2" class="st14" width="1.7" height="1.6"/>
			<rect x="177.8" y="211.2" class="st14" width="1.7" height="1.6"/>
			<rect x="191" y="196.4" class="st14" width="1.7" height="1.6"/>
			<rect x="192.7" y="191.5" class="st14" width="1.7" height="1.6"/>
			<rect x="192.7" y="171.8" class="st14" width="1.7" height="1.6"/>
			<rect x="197.7" y="171.8" class="st14" width="1.7" height="1.6"/>
			<rect x="202.6" y="171.8" class="st14" width="1.7" height="1.6"/>
			<rect x="191" y="166.8" class="st14" width="1.7" height="1.6"/>
			<rect x="196" y="166.8" class="st14" width="1.7" height="1.6"/>
			<rect x="201" y="166.8" class="st14" width="1.7" height="1.6"/>
			<rect x="205.9" y="166.8" class="st14" width="1.7" height="1.6"/>
			<rect x="196" y="176.7" class="st14" width="1.7" height="1.6"/>
			<rect x="201" y="176.7" class="st14" width="1.7" height="1.6"/>
			<rect x="192.7" y="161.9" class="st14" width="1.7" height="1.6"/>
			<rect x="197.7" y="161.9" class="st14" width="1.7" height="1.6"/>
			<rect x="202.6" y="161.9" class="st14" width="1.7" height="1.6"/>
			<rect x="192.7" y="181.6" class="st14" width="1.7" height="1.6"/>
			<rect x="197.7" y="181.6" class="st14" width="1.7" height="1.6"/>
			<rect x="202.6" y="181.6" class="st14" width="1.7" height="1.6"/>
			<rect x="191" y="186.5" class="st14" width="1.7" height="1.6"/>
			<rect x="196" y="186.5" class="st14" width="1.7" height="1.6"/>
			<rect x="201" y="186.5" class="st14" width="1.7" height="1.6"/>
			<rect x="182.8" y="230.9" class="st14" width="1.7" height="1.6"/>
			<rect x="187.7" y="230.9" class="st14" width="1.7" height="1.6"/>
			<rect x="181.1" y="225.9" class="st14" width="1.7" height="1.6"/>
			<rect x="177.8" y="221" class="st14" width="1.7" height="1.6"/>
			<rect x="197.7" y="260.4" class="st14" width="1.7" height="1.6"/>
			<rect x="202.6" y="260.4" class="st14" width="1.7" height="1.6"/>
			<rect x="196" y="255.5" class="st14" width="1.7" height="1.6"/>
			<rect x="201" y="255.5" class="st14" width="1.7" height="1.6"/>
			<rect x="205.9" y="255.5" class="st14" width="1.7" height="1.6"/>
			<rect x="196" y="265.3" class="st14" width="1.7" height="1.6"/>
			<rect x="201" y="265.3" class="st14" width="1.7" height="1.6"/>
			<rect x="205.9" y="265.3" class="st14" width="1.7" height="1.6"/>
			<rect x="197.7" y="250.6" class="st14" width="1.7" height="1.6"/>
			<rect x="202.6" y="250.6" class="st14" width="1.7" height="1.6"/>
			<rect x="192.7" y="270.2" class="st14" width="1.7" height="1.6"/>
			<rect x="197.7" y="270.2" class="st14" width="1.7" height="1.6"/>
			<rect x="202.6" y="270.2" class="st14" width="1.7" height="1.6"/>
			<rect x="191" y="235.8" class="st14" width="1.7" height="1.6"/>
			<rect x="196" y="235.8" class="st14" width="1.7" height="1.6"/>
			<rect x="192.7" y="240.7" class="st14" width="1.7" height="1.6"/>
			<rect x="197.7" y="240.7" class="st14" width="1.7" height="1.6"/>
			<rect x="196" y="245.6" class="st14" width="1.7" height="1.6"/>
			<rect x="201" y="245.6" class="st14" width="1.7" height="1.6"/>
		</g>
	</g>
	<path class="st21" d="M203,67.7c-1.1,0.4-2.3,0.8-3.5,0.7c-1.4-0.2-2.4-1.4-2.9-2.6s-0.9-2.6-1.8-3.7c-1.1-1.4-2.9-2.1-4.7-2.2
		c-2.5-0.1-5.6,1.7-8,0.9c-1.3-0.4-2.2-1.7-2.8-2.9s-1.2-2.5-2.3-3.4c-3.1-2.5-9.5-0.4-11.1,3c-0.7,1.4-0.8,3.2-2.1,4
		c-0.5,0.3-1.2,0.4-1.8,0.5c-2.2,0.5-4.1,1.9-5.2,3.9s-1.2,4.4-0.2,6.4c0.8,1.7,2.3,3.1,3.9,4.2c1.5,1.1,3.2,2.1,5,2.1
		c1.6,0,3.1-0.7,4.7-1.2c6.8-2.5,14.3-2.4,21.5-2.3c2.1,0,4.2,0.1,6.3,0.6c2.8,0.8,5.2,2.5,7.8,3.6c0.9,0.4,1.9,0.8,2.9,0.6
		c0.7-0.1,1.3-0.6,1.9-1.1c2.4-2.2,3.3-6.1,1.7-9c-0.9-1.6-2.6-2.8-4.4-3.1C206.1,66.5,204.5,67.2,203,67.7z"/>
	<path class="st21" d="M274,215.2c-1.1,0.4-2.3,0.8-3.5,0.7c-1.4-0.2-2.4-1.4-2.9-2.6s-0.9-2.6-1.8-3.7c-1.1-1.4-2.9-2.1-4.7-2.2
		c-2.5-0.1-5.6,1.7-8,0.9c-1.3-0.4-2.2-1.7-2.8-2.9c-0.7-1.2-1.2-2.5-2.3-3.4c-3.1-2.5-9.5-0.4-11.1,3c-0.7,1.4-0.8,3.2-2.1,4
		c-0.5,0.3-1.2,0.4-1.8,0.5c-2.2,0.5-4.1,1.9-5.2,3.9s-1.2,4.4-0.2,6.4c0.8,1.7,2.3,3.1,3.9,4.2c1.5,1.1,3.2,2.1,5,2.1
		c1.6,0,3.1-0.7,4.7-1.2c6.8-2.5,14.3-2.4,21.5-2.3c2.1,0,4.2,0.1,6.3,0.6c2.8,0.8,5.2,2.5,7.8,3.6c0.9,0.4,1.9,0.8,2.9,0.6
		c0.7-0.1,1.3-0.6,1.9-1.1c2.4-2.2,3.3-6.1,1.7-9c-0.9-1.6-2.6-2.8-4.4-3.1C277,213.9,275.5,214.6,274,215.2z"/>
	<path class="st22" d="M122.5,38.5c-1.2,0.4-2.3,0.8-3.5,0.7c-1.4-0.2-2.4-1.4-3-2.6s-0.9-2.6-1.8-3.7c-1.1-1.4-3-2.1-4.8-2.2
		c-2.6-0.1-5.6,1.7-8,0.9c-1.3-0.4-2.2-1.7-2.9-2.9s-1.3-2.6-2.4-3.4c-3.2-2.5-9.5-0.4-11.2,3.1c-0.7,1.4-0.8,3.2-2.1,4
		c-0.5,0.3-1.2,0.4-1.8,0.5c-2.2,0.5-4.2,1.9-5.2,3.9c-1.1,2-1.2,4.4-0.2,6.4c0.8,1.8,2.3,3.1,3.9,4.2c1.5,1.1,3.2,2.1,5.1,2.1
		c1.6,0,3.2-0.7,4.7-1.2c6.9-2.5,14.4-2.4,21.7-2.3c2.1,0,4.3,0.1,6.3,0.6c2.8,0.8,5.2,2.5,7.9,3.7c0.9,0.4,1.9,0.8,2.9,0.6
		c0.7-0.1,1.4-0.6,1.9-1.1c2.4-2.2,3.4-6.2,1.7-9.1c-0.9-1.6-2.6-2.8-4.5-3.2C125.6,37.3,124.1,37.9,122.5,38.5z"/>
	<g>
		<path class="st18" d="M63.7,78.9c0,0-0.7,7.7,10.5,12.1c0,0-9.9,3.4-9.6,12.6c0,0-3.9-12.1-11.5-12.3
			C53.1,91.2,62.7,89.2,63.7,78.9z"/>
		<path class="st23" d="M58.4,103.5c0,0-0.3,3.8,5.2,6c0,0-5,1.7-4.8,6.3c0,0-2-6-5.7-6.2C53.1,109.7,57.9,108.7,58.4,103.5z"/>
	</g>
</g>
</svg>
